<svg width="30" height="45" viewBox="0 0 30 45" fill="none" xmlns="http://www.w3.org/2000/svg">
<path fill-rule="evenodd" clip-rule="evenodd" d="M28.4737 21.6C29.4512 19.6084 30 17.3683 30 15C30 6.71573 23.2843 0 15 0C6.71573 0 0 6.71573 0 15C0 17.3683 0.548843 19.6084 1.52627 21.6H1.49001L1.86557 22.2505C1.95413 22.4106 2.04553 22.5689 2.1397 22.7253L15 45L27.8604 22.7251C27.9545 22.5688 28.0458 22.4106 28.1343 22.2507L28.51 21.6H28.4737Z" fill="#D35746"/>
<circle cx="15.0008" cy="14.9998" r="10.2" fill="white"/>
<path d="M11.7985 9L10.9985 13.4C10.8814 14.044 12.4237 14.3448 12.3985 15L12.1985 20.2C12.1678 20.9994 12.9985 21 12.9985 21C12.9985 21 13.8293 20.9994 13.7985 20.2L13.5985 15C13.5734 14.3459 14.9853 14.0554 14.9985 13.4L14.1985 9H13.7985L13.9985 12.2L13.3985 12.6L13.1985 9H12.7985L12.5985 12.6L11.9985 12.2L12.1985 9H11.7985ZM18.5985 9C18.0094 9 17.0272 9.52392 16.6345 10.3094C16.3072 10.8985 16.1985 12.2146 16.1985 13V15C16.1985 15.6546 17.0713 15.8 17.3985 15.8L16.9985 20.2C16.9261 20.9967 17.7985 21 17.7985 21C17.7985 21 18.5985 21 18.5985 20.2V9Z" fill="#D35746"/>
</svg>
